<?xml version="1.0" encoding="UTF-8" standalone="no"?>
<!-- Created with Inkscape (http://www.inkscape.org/) -->

<svg
   width="86mm"
   height="19mm"
   viewBox="0 0 86 19"
   version="1.1"
   id="svg1"
   inkscape:version="1.3.2 (091e20e, 2023-11-25, custom)"
   sodipodi:docname="Rimori logo.svg"
   xmlns:inkscape="http://www.inkscape.org/namespaces/inkscape"
   xmlns:sodipodi="http://sodipodi.sourceforge.net/DTD/sodipodi-0.dtd"
   xmlns="http://www.w3.org/2000/svg"
   xmlns:svg="http://www.w3.org/2000/svg">
  <sodipodi:namedview
     id="namedview1"
     pagecolor="#505050"
     bordercolor="#ffffff"
     borderopacity="1"
     inkscape:showpageshadow="0"
     inkscape:pageopacity="0"
     inkscape:pagecheckerboard="1"
     inkscape:deskcolor="#505050"
     inkscape:document-units="mm"
     inkscape:zoom="4.288551"
     inkscape:cx="249.03516"
     inkscape:cy="55.146832"
     inkscape:window-width="958"
     inkscape:window-height="1039"
     inkscape:window-x="953"
     inkscape:window-y="0"
     inkscape:window-maximized="0"
     inkscape:current-layer="layer1" />
  <defs
     id="defs1">
    <rect
       x="67.272041"
       y="114.75818"
       width="602.81024"
       height="172.7968"
       id="rect1" />
  </defs>
  <g
     inkscape:label="Layer 1"
     inkscape:groupmode="layer"
     id="layer1">
    <path
       style="font-weight:bold;font-size:96px;font-family:Quicksand;-inkscape-font-specification:'Quicksand Bold';white-space:pre;stroke-width:1.00157"
       d="m 81.383484,203.55781 q -2.688,0 -4.8,-1.632 -2.112,-1.728 -2.112,-4.224 v -55.488 q 0,-2.496 1.632,-4.128 1.728,-1.728 4.224,-1.728 h 27.647996 q 4.992,0 9.312,2.688 4.416,2.592 7.104,7.296 2.688,4.608 2.688,10.656 0,3.648 -1.536,7.104 -1.44,3.456 -4.032,6.24 -2.496,2.784 -5.664,4.32 l 0.096,-2.208 q 2.688,1.44 4.416,3.456 1.824,1.92 2.784,4.224 1.056,2.208 1.248,4.8 0.384,2.4 0.48,4.224 0.192,1.824 0.576,3.072 0.48,1.248 1.728,1.92 2.112,1.248 2.592,3.648 0.576,2.304 -1.056,4.128 -1.056,1.248 -2.688,1.632 -1.632,0.288 -3.264,0 -1.632,-0.384 -2.688,-0.96 -1.632,-0.96 -3.264,-2.784 -1.632,-1.92 -2.688,-5.088 -0.96,-3.168 -0.96,-8.16 0,-1.632 -0.576,-2.976 -0.576,-1.44 -1.632,-2.4 -1.056,-1.056 -2.688,-1.536 -1.632,-0.576 -3.84,-0.576 H 85.031484 l 1.44,-2.208 v 20.832 q 0,2.496 -1.344,4.224 -1.344,1.632 -3.744,1.632 z m 3.744,-34.368 h 22.367996 q 1.728,0 3.36,-1.536 1.632,-1.632 2.688,-4.32 1.056,-2.784 1.056,-6.048 0,-4.224 -2.304,-7.008 -2.208,-2.88 -4.8,-2.88 H 85.319484 l 1.152,-3.072 v 27.168 z m 67.296026,28.512 q 0,2.496 -1.824,4.224 -1.824,1.632 -4.224,1.632 -2.688,0 -4.32,-1.632 -1.632,-1.728 -1.632,-4.224 v -55.488 q 0,-2.496 1.728,-4.128 1.728,-1.728 4.416,-1.728 2.304,0 4.032,1.728 1.824,1.632 1.824,4.128 z m 20.44796,-61.44 q 1.344,0 2.784,0.768 1.536,0.672 2.304,1.824 l 23.328,35.904 -4.8,-0.192 23.904,-35.712 q 1.824,-2.592 4.704,-2.592 2.304,0 4.128,1.632 1.824,1.632 1.824,4.224 v 55.584 q 0,2.496 -1.632,4.224 -1.632,1.632 -4.32,1.632 -2.688,0 -4.416,-1.632 -1.632,-1.728 -1.632,-4.224 v -45.216 l 3.744,0.864 -19.584,29.856 q -0.864,1.056 -2.208,1.824 -1.248,0.768 -2.592,0.672 -1.248,0.096 -2.592,-0.672 -1.248,-0.768 -2.112,-1.824 l -18.336,-28.992 2.496,-5.088 v 48.576 q 0,2.496 -1.536,4.224 -1.536,1.632 -4.032,1.632 -2.4,0 -3.936,-1.632 -1.536,-1.728 -1.536,-4.224 v -55.584 q 0,-2.4 1.728,-4.128 1.824,-1.728 4.32,-1.728 z m 134.40003,33.696 q 0,7.2 -2.4,13.44 -2.4,6.24 -6.816,11.04 -4.32,4.704 -10.368,7.392 -5.952,2.688 -13.056,2.688 -7.104,0 -13.056,-2.688 -5.952,-2.688 -10.368,-7.392 -4.32,-4.8 -6.72,-11.04 -2.4,-6.24 -2.4,-13.44 0,-7.2 2.4,-13.44 2.4,-6.24 6.72,-10.944 4.416,-4.8 10.368,-7.488 5.952,-2.688 13.056,-2.688 7.104,0 13.056,2.688 6.048,2.688 10.368,7.488 4.416,4.704 6.816,10.944 2.4,6.24 2.4,13.44 z m -12.48,0 q 0,-6.432 -2.592,-11.616 -2.592,-5.28 -7.104,-8.352 -4.512,-3.072 -10.464,-3.072 -5.952,0 -10.464,3.072 -4.512,3.072 -7.104,8.256 -2.496,5.184 -2.496,11.712 0,6.432 2.496,11.712 2.592,5.184 7.104,8.256 4.512,3.072 10.464,3.072 5.952,0 10.464,-3.072 4.512,-3.072 7.104,-8.256 2.592,-5.28 2.592,-11.712 z m 30.43207,33.6 q -2.688,0 -4.8,-1.632 -2.112,-1.728 -2.112,-4.224 v -55.488 q 0,-2.496 1.632,-4.128 1.728,-1.728 4.224,-1.728 h 27.648 q 4.992,0 9.312,2.688 4.416,2.592 7.104,7.296 2.688,4.608 2.688,10.656 0,3.648 -1.536,7.104 -1.44,3.456 -4.032,6.24 -2.496,2.784 -5.664,4.32 l 0.096,-2.208 q 2.688,1.44 4.416,3.456 1.824,1.92 2.784,4.224 1.056,2.208 1.248,4.8 0.384,2.4 0.48,4.224 0.192,1.824 0.576,3.072 0.48,1.248 1.728,1.92 2.112,1.248 2.592,3.648 0.576,2.304 -1.056,4.128 -1.056,1.248 -2.688,1.632 -1.632,0.288 -3.264,0 -1.632,-0.384 -2.688,-0.96 -1.632,-0.96 -3.264,-2.784 -1.632,-1.92 -2.688,-5.088 -0.96,-3.168 -0.96,-8.16 0,-1.632 -0.576,-2.976 -0.576,-1.44 -1.632,-2.4 -1.056,-1.056 -2.688,-1.536 -1.632,-0.576 -3.84,-0.576 h -19.392 l 1.44,-2.208 v 20.832 q 0,2.496 -1.344,4.224 -1.344,1.632 -3.744,1.632 z m 3.744,-34.368 h 22.368 q 1.728,0 3.36,-1.536 1.632,-1.632 2.688,-4.32 1.056,-2.784 1.056,-6.048 0,-4.224 -2.304,-7.008 -2.208,-2.88 -4.8,-2.88 h -22.176 l 1.152,-3.072 v 27.168 z m 67.29603,28.512 q 0,2.496 -1.824,4.224 -1.824,1.632 -4.224,1.632 -2.688,0 -4.32,-1.632 -1.632,-1.728 -1.632,-4.224 v -55.488 q 0,-2.496 1.728,-4.128 1.728,-1.728 4.416,-1.728 2.304,0 4.032,1.728 1.824,1.632 1.824,4.128 z"
       id="text1"
       transform="matrix(0.26458333,0,0,0.26458333,-19.422491,-35.53824)"
       aria-label="RIMORI" />
  </g>
</svg>
